<svg width="1572" height="1225" viewBox="0 0 1572 1225" fill="none" xmlns="http://www.w3.org/2000/svg">
<path d="M1572 1225H445V574.777C445 574.777 541.265 703.747 695.444 703.747C755.662 703.747 903.626 645.979 1033.54 510.292C1154.72 383.732 1291.94 193.687 1365.38 92.4826C1420.95 15.9069 1536 -47.2346 1572 48.1493V1225Z" fill="#EFF3F4" fill-opacity="0.42"/>
<path d="M0 1225H1440V741C1440 741 1317 837 1120 837C1043.06 837 854 794 688 693C533.167 598.795 357.835 457.332 264 382C193 325 46 278 0 349V1225Z" fill="#EFF3F4"/>
</svg>
