<svg width="307" height="15" viewBox="0 0 307 15" fill="none" xmlns="http://www.w3.org/2000/svg">
<path d="M7.92969 14H0.766602V1.15039H7.92969V2.47754H2.26074V6.61719H7.58691V7.93555H2.26074V12.6641H7.92969V14ZM21.043 7.45215C21.043 9.57324 20.4658 11.1963 19.3115 12.3213C18.1631 13.4404 16.5078 14 14.3457 14H10.7861V1.15039H14.7236C16.7217 1.15039 18.2744 1.7041 19.3818 2.81152C20.4893 3.91895 21.043 5.46582 21.043 7.45215ZM19.4609 7.50488C19.4609 5.8291 19.0391 4.56641 18.1953 3.7168C17.3574 2.86719 16.1094 2.44238 14.4512 2.44238H12.2803V12.708H14.0996C15.8809 12.708 17.2197 12.2715 18.1162 11.3984C19.0127 10.5195 19.4609 9.22168 19.4609 7.50488ZM33.6201 1.15039V9.46484C33.6201 10.9297 33.1777 12.0811 32.293 12.9189C31.4082 13.7568 30.1924 14.1758 28.6455 14.1758C27.0986 14.1758 25.9004 13.7539 25.0508 12.9102C24.207 12.0664 23.7852 10.9062 23.7852 9.42969V1.15039H25.2793V9.53516C25.2793 10.6074 25.5723 11.4307 26.1582 12.0049C26.7441 12.5791 27.6055 12.8662 28.7422 12.8662C29.8262 12.8662 30.6611 12.5791 31.2471 12.0049C31.833 11.4248 32.126 10.5957 32.126 9.51758V1.15039H33.6201ZM42.5322 2.30176C41.1201 2.30176 40.0039 2.77344 39.1836 3.7168C38.3691 4.6543 37.9619 5.94043 37.9619 7.5752C37.9619 9.25684 38.3545 10.5576 39.1396 11.4775C39.9307 12.3916 41.0557 12.8486 42.5146 12.8486C43.4111 12.8486 44.4336 12.6875 45.582 12.3652V13.6748C44.6914 14.0088 43.5928 14.1758 42.2861 14.1758C40.3936 14.1758 38.9316 13.6016 37.9004 12.4531C36.875 11.3047 36.3623 9.67285 36.3623 7.55762C36.3623 6.2334 36.6084 5.07324 37.1006 4.07715C37.5986 3.08105 38.3135 2.31348 39.2451 1.77441C40.1826 1.23535 41.2842 0.96582 42.5498 0.96582C43.8975 0.96582 45.0752 1.21191 46.083 1.7041L45.4502 2.9873C44.4775 2.53027 43.5049 2.30176 42.5322 2.30176ZM56.4629 14L54.8633 9.91309H49.7129L48.1309 14H46.6191L51.6992 1.09766H52.9561L58.0098 14H56.4629ZM54.3975 8.56836L52.9033 4.58691C52.71 4.08301 52.5107 3.46484 52.3057 2.73242C52.1768 3.29492 51.9922 3.91309 51.752 4.58691L50.2402 8.56836H54.3975ZM63.7314 14H62.2373V2.47754H58.168V1.15039H67.8008V2.47754H63.7314V14ZM69.7432 14V1.15039H71.2373V14H69.7432ZM85.9238 7.55762C85.9238 9.61426 85.4023 11.2314 84.3594 12.4092C83.3223 13.5869 81.8779 14.1758 80.0264 14.1758C78.1338 14.1758 76.6719 13.5986 75.6406 12.4443C74.6152 11.2842 74.1025 9.64941 74.1025 7.54004C74.1025 5.44824 74.6182 3.82812 75.6494 2.67969C76.6807 1.52539 78.1455 0.948242 80.0439 0.948242C81.8896 0.948242 83.3311 1.53418 84.3682 2.70605C85.4053 3.87793 85.9238 5.49512 85.9238 7.55762ZM75.6846 7.55762C75.6846 9.29785 76.0537 10.6191 76.792 11.5215C77.5361 12.418 78.6143 12.8662 80.0264 12.8662C81.4502 12.8662 82.5254 12.418 83.252 11.5215C83.9785 10.625 84.3418 9.30371 84.3418 7.55762C84.3418 5.8291 83.9785 4.51953 83.252 3.62891C82.5312 2.73242 81.4619 2.28418 80.0439 2.28418C78.6201 2.28418 77.5361 2.73535 76.792 3.6377C76.0537 4.53418 75.6846 5.84082 75.6846 7.55762ZM98.835 14H97.1299L90.1074 3.21582H90.0371C90.1309 4.48145 90.1777 5.6416 90.1777 6.69629V14H88.7979V1.15039H90.4854L97.4902 11.8906H97.5605C97.5488 11.7324 97.5225 11.2256 97.4814 10.3701C97.4404 9.50879 97.4258 8.89355 97.4375 8.52441V1.15039H98.835V14ZM115.121 14L113.521 9.91309H108.371L106.789 14H105.277L110.357 1.09766H111.614L116.668 14H115.121ZM113.056 8.56836L111.562 4.58691C111.368 4.08301 111.169 3.46484 110.964 2.73242C110.835 3.29492 110.65 3.91309 110.41 4.58691L108.898 8.56836H113.056ZM128.472 14H126.767L119.744 3.21582H119.674C119.768 4.48145 119.814 5.6416 119.814 6.69629V14H118.435V1.15039H120.122L127.127 11.8906H127.197C127.186 11.7324 127.159 11.2256 127.118 10.3701C127.077 9.50879 127.062 8.89355 127.074 8.52441V1.15039H128.472V14ZM142.262 7.45215C142.262 9.57324 141.685 11.1963 140.53 12.3213C139.382 13.4404 137.727 14 135.564 14H132.005V1.15039H135.942C137.94 1.15039 139.493 1.7041 140.601 2.81152C141.708 3.91895 142.262 5.46582 142.262 7.45215ZM140.68 7.50488C140.68 5.8291 140.258 4.56641 139.414 3.7168C138.576 2.86719 137.328 2.44238 135.67 2.44238H133.499V12.708H135.318C137.1 12.708 138.438 12.2715 139.335 11.3984C140.231 10.5195 140.68 9.22168 140.68 7.50488ZM161.026 14H159.55L156.957 5.39551C156.834 5.01465 156.696 4.53418 156.544 3.9541C156.392 3.37402 156.312 3.02539 156.307 2.9082C156.178 3.68164 155.973 4.52832 155.691 5.44824L153.178 14H151.701L148.282 1.15039H149.864L151.895 9.08691C152.176 10.2002 152.381 11.208 152.51 12.1104C152.668 11.0381 152.902 9.98926 153.213 8.96387L155.516 1.15039H157.098L159.515 9.03418C159.796 9.94238 160.033 10.9678 160.227 12.1104C160.338 11.2783 160.549 10.2646 160.859 9.06934L162.881 1.15039H164.463L161.026 14ZM177.629 7.55762C177.629 9.61426 177.107 11.2314 176.064 12.4092C175.027 13.5869 173.583 14.1758 171.731 14.1758C169.839 14.1758 168.377 13.5986 167.346 12.4443C166.32 11.2842 165.808 9.64941 165.808 7.54004C165.808 5.44824 166.323 3.82812 167.354 2.67969C168.386 1.52539 169.851 0.948242 171.749 0.948242C173.595 0.948242 175.036 1.53418 176.073 2.70605C177.11 3.87793 177.629 5.49512 177.629 7.55762ZM167.39 7.55762C167.39 9.29785 167.759 10.6191 168.497 11.5215C169.241 12.418 170.319 12.8662 171.731 12.8662C173.155 12.8662 174.23 12.418 174.957 11.5215C175.684 10.625 176.047 9.30371 176.047 7.55762C176.047 5.8291 175.684 4.51953 174.957 3.62891C174.236 2.73242 173.167 2.28418 171.749 2.28418C170.325 2.28418 169.241 2.73535 168.497 3.6377C167.759 4.53418 167.39 5.84082 167.39 7.55762ZM181.997 8.65625V14H180.503V1.15039H184.027C185.604 1.15039 186.767 1.45215 187.517 2.05566C188.272 2.65918 188.65 3.56738 188.65 4.78027C188.65 6.47949 187.789 7.62793 186.066 8.22559L189.556 14H187.789L184.678 8.65625H181.997ZM181.997 7.37305H184.045C185.1 7.37305 185.873 7.16504 186.365 6.74902C186.857 6.32715 187.104 5.69727 187.104 4.85938C187.104 4.00977 186.852 3.39746 186.348 3.02246C185.85 2.64746 185.047 2.45996 183.939 2.45996H181.997V7.37305ZM200.911 14H199.153L194.469 7.76855L193.124 8.96387V14H191.63V1.15039H193.124V7.52246L198.951 1.15039H200.718L195.55 6.73145L200.911 14ZM214.525 14H207.362V1.15039H214.525V2.47754H208.856V6.61719H214.183V7.93555H208.856V12.6641H214.525V14ZM225.934 14H224.237L220.783 8.34863L217.268 14H215.686L219.957 7.28516L215.976 1.15039H217.628L220.818 6.23926L224.035 1.15039H225.626L221.645 7.23242L225.934 14ZM235.918 4.89453C235.918 6.19531 235.473 7.19727 234.582 7.90039C233.697 8.59766 232.429 8.94629 230.776 8.94629H229.265V14H227.771V1.15039H231.102C234.312 1.15039 235.918 2.39844 235.918 4.89453ZM229.265 7.66309H230.609C231.934 7.66309 232.892 7.44922 233.483 7.02148C234.075 6.59375 234.371 5.9082 234.371 4.96484C234.371 4.11523 234.093 3.48242 233.536 3.06641C232.979 2.65039 232.112 2.44238 230.935 2.44238H229.265V7.66309ZM245.779 14H238.616V1.15039H245.779V2.47754H240.11V6.61719H245.437V7.93555H240.11V12.6641H245.779V14ZM250.13 8.65625V14H248.636V1.15039H252.16C253.736 1.15039 254.899 1.45215 255.649 2.05566C256.405 2.65918 256.783 3.56738 256.783 4.78027C256.783 6.47949 255.922 7.62793 254.199 8.22559L257.688 14H255.922L252.811 8.65625H250.13ZM250.13 7.37305H252.178C253.232 7.37305 254.006 7.16504 254.498 6.74902C254.99 6.32715 255.236 5.69727 255.236 4.85938C255.236 4.00977 254.984 3.39746 254.48 3.02246C253.982 2.64746 253.18 2.45996 252.072 2.45996H250.13V7.37305ZM259.763 14V1.15039H261.257V14H259.763ZM271.953 14H264.79V1.15039H271.953V2.47754H266.284V6.61719H271.61V7.93555H266.284V12.6641H271.953V14ZM284.847 14H283.142L276.119 3.21582H276.049C276.143 4.48145 276.189 5.6416 276.189 6.69629V14H274.81V1.15039H276.497L283.502 11.8906H283.572C283.561 11.7324 283.534 11.2256 283.493 10.3701C283.452 9.50879 283.438 8.89355 283.449 8.52441V1.15039H284.847V14ZM293.882 2.30176C292.47 2.30176 291.354 2.77344 290.533 3.7168C289.719 4.6543 289.312 5.94043 289.312 7.5752C289.312 9.25684 289.704 10.5576 290.489 11.4775C291.28 12.3916 292.405 12.8486 293.864 12.8486C294.761 12.8486 295.783 12.6875 296.932 12.3652V13.6748C296.041 14.0088 294.942 14.1758 293.636 14.1758C291.743 14.1758 290.281 13.6016 289.25 12.4531C288.225 11.3047 287.712 9.67285 287.712 7.55762C287.712 6.2334 287.958 5.07324 288.45 4.07715C288.948 3.08105 289.663 2.31348 290.595 1.77441C291.532 1.23535 292.634 0.96582 293.899 0.96582C295.247 0.96582 296.425 1.21191 297.433 1.7041L296.8 2.9873C295.827 2.53027 294.854 2.30176 293.882 2.30176ZM306.898 14H299.735V1.15039H306.898V2.47754H301.229V6.61719H306.556V7.93555H301.229V12.6641H306.898V14Z" fill="#DB6B5C"/>
</svg>
