<svg width="20" height="20" viewBox="0 0 20 20" fill="none" xmlns="http://www.w3.org/2000/svg">
<path d="M10.685 3.69254C10.6085 3.5815 10.5062 3.49072 10.3869 3.428C10.2676 3.36528 10.1348 3.33251 9.99999 3.33251C9.86518 3.33251 9.7324 3.36528 9.61307 3.428C9.49374 3.49072 9.39144 3.5815 9.31499 3.69254L1.81499 14.5259C1.72818 14.6508 1.67727 14.7972 1.6678 14.949C1.65832 15.1009 1.69065 15.2524 1.76125 15.3872C1.83186 15.522 1.93806 15.6348 2.06829 15.7135C2.19854 15.7922 2.34784 15.8336 2.49999 15.8334L17.5 15.8334C17.6518 15.8327 17.8005 15.7908 17.9303 15.7119C18.06 15.6331 18.1657 15.5203 18.2362 15.3859C18.3066 15.2514 18.3391 15.1003 18.3301 14.9488C18.321 14.7972 18.2709 14.651 18.185 14.5259L10.685 3.69254Z" fill="#DB6B5C"/>
</svg>
