<?xml version="1.0" encoding="utf-8"?>
<!-- Generator: Adobe Illustrator 24.1.2, SVG Export Plug-In . SVG Version: 6.00 Build 0)  -->
<svg version="1.1" id="Layer_1" xmlns="http://www.w3.org/2000/svg" xmlns:xlink="http://www.w3.org/1999/xlink" x="0px" y="0px"
	 width="20px" height="20px" viewBox="0 0 20 20" enable-background="new 0 0 20 20" xml:space="preserve">
<path fill="#DB6B5C" d="M15.9,10.3c0.1-0.1,0.2-0.2,0.3-0.3c0.1-0.1,0.1-0.3,0.1-0.4c0-0.1,0-0.3-0.1-0.4C16.1,9.1,16,9,15.9,8.9
	L5.1,1.4C4.9,1.3,4.8,1.3,4.6,1.3c-0.2,0-0.3,0-0.4,0.1C4.1,1.4,3.9,1.5,3.9,1.7C3.8,1.8,3.7,1.9,3.7,2.1v15c0,0.2,0,0.3,0.1,0.4
	c0.1,0.1,0.2,0.2,0.3,0.3c0.1,0.1,0.3,0.1,0.4,0.1c0.2,0,0.3-0.1,0.4-0.1L15.9,10.3z"/>
</svg>
