<svg viewBox="0 0 274 39" fill="none" xmlns="http://www.w3.org/2000/svg">
<path d="M3.24 0.181786H9.72H12.96V0.757785C11.4 0.757785 10.416 1.36979 10.008 2.59379C9.816 3.21779 9.72 4.03379 9.72 5.04179V16.4178L21.096 5.04179C23.016 3.12179 23.496 1.82579 22.536 1.15379C22.152 0.889785 21.624 0.757785 20.952 0.757785V0.181786H29.052V0.757785C27.66 0.757785 26.268 1.28579 24.876 2.34179C24.084 2.96579 23.1 3.86579 21.924 5.04179L17.856 9.07379L24.192 19.7298L27.144 24.7698C27.984 26.1138 28.8 26.9418 29.592 27.2538C30.048 27.4218 30.576 27.5058 31.176 27.5058V28.0818H18.216V27.5058C19.536 27.5058 20.196 27.1338 20.196 26.3898C20.172 25.7658 19.716 24.7098 18.828 23.2218L13.212 13.7178L9.72 17.2458V23.2218C9.72 25.3818 10.236 26.7018 11.268 27.1818C11.724 27.3978 12.288 27.5058 12.96 27.5058V28.0818H0V27.5058C1.536 27.5058 2.496 27.0138 2.88 26.0298C3.12 25.4058 3.24 24.4698 3.24 23.2218V20.9898V7.27379V5.04179C3.24 3.07379 2.892 1.82579 2.196 1.29779C1.716 0.937785 0.984 0.757785 0 0.757785V0.181786H3.24ZM46.3553 9.82979C47.9873 9.82979 49.1873 10.4418 49.9553 11.6658C50.7473 12.9138 50.7233 14.2458 49.8833 15.6618C49.2593 16.6938 48.3353 17.1738 47.1113 17.1018C45.9593 17.0538 45.1553 16.5738 44.6993 15.6618C44.6033 15.4218 44.5313 15.1818 44.4833 14.9418C45.4913 14.9178 46.0913 14.4498 46.2833 13.5378C46.4513 12.7218 46.2473 12.0618 45.6713 11.5578C45.2873 11.2458 44.8313 11.1378 44.3033 11.2338C43.1513 11.4258 42.4193 12.0858 42.1073 13.2138C41.8673 14.0298 41.7473 15.5298 41.7473 17.7138V20.9898V23.2218C41.7473 25.3818 42.2633 26.7018 43.2953 27.1818C43.7513 27.3978 44.3153 27.5058 44.9873 27.5058V28.0818H32.0273V27.5058C33.5633 27.5058 34.5233 27.0138 34.9073 26.0298C35.1473 25.4058 35.2673 24.4698 35.2673 23.2218V20.9898V18.7218C35.2673 16.0818 34.6913 14.5218 33.5393 14.0418C33.2513 13.9458 32.9393 13.8738 32.6033 13.8258V13.2498C33.5393 13.2498 34.4753 13.1418 35.4113 12.9258C36.3473 12.7098 37.1393 12.4458 37.7873 12.1338C38.4593 11.8218 39.0593 11.5098 39.5873 11.1978C40.1153 10.8858 40.5113 10.6218 40.7753 10.4058L41.1713 10.0818H41.7473V11.8458C42.3473 11.0538 43.3193 10.4658 44.6633 10.0818C45.2393 9.91379 45.8033 9.82979 46.3553 9.82979ZM57.3033 0.181786C58.6713 0.181786 59.7273 0.757786 60.4713 1.90979C60.8793 2.53379 61.0833 3.21779 61.0833 3.96179C61.0833 5.32979 60.5073 6.38579 59.3553 7.12979C58.7313 7.51379 58.0473 7.70579 57.3033 7.70579C55.9593 7.70579 54.9153 7.14179 54.1713 6.01379C53.7633 5.38979 53.5593 4.70579 53.5593 3.96179C53.5593 2.59379 54.1353 1.53779 55.2873 0.793787C55.9113 0.385786 56.5833 0.181786 57.3033 0.181786ZM60.5073 10.0818H61.0833V20.9898V23.2218C61.0833 25.3818 61.5993 26.7018 62.6313 27.1818C63.0873 27.3978 63.6513 27.5058 64.3233 27.5058V28.0818H51.3633V27.5058C52.8993 27.5058 53.8593 27.0138 54.2433 26.0298C54.4833 25.4058 54.6033 24.4698 54.6033 23.2218V20.9898V18.7218C54.6033 16.0818 54.0273 14.5218 52.8753 14.0418C52.5873 13.9458 52.2753 13.8738 51.9393 13.8258V13.2498C52.8753 13.2498 53.8113 13.1418 54.7473 12.9258C55.6833 12.7098 56.4753 12.4458 57.1233 12.1338C57.7953 11.8218 58.3953 11.5098 58.9233 11.1978C59.4513 10.8858 59.8473 10.6218 60.1113 10.4058L60.5073 10.0818ZM72.317 10.0818C73.085 10.0818 74.249 10.2378 75.809 10.5498C76.385 10.6458 76.733 10.5378 76.853 10.2258C76.877 10.1778 76.901 10.1298 76.925 10.0818H77.501L78.077 15.9858L77.465 16.0218C76.841 13.3098 75.797 11.6418 74.333 11.0178C73.733 10.7778 73.061 10.6578 72.317 10.6578C71.141 10.6578 70.409 11.1618 70.121 12.1698C69.929 12.8178 70.001 13.4778 70.337 14.1498C70.697 14.8458 71.849 15.6258 73.793 16.4898C76.121 17.4978 77.621 18.2418 78.293 18.7218C79.685 19.7298 80.381 20.8818 80.381 22.1778C80.381 24.4098 79.289 26.0898 77.105 27.2178C75.593 27.9858 73.757 28.3698 71.597 28.3698C68.957 28.3698 67.001 27.6138 65.729 26.1018C64.889 25.0698 64.613 23.9538 64.901 22.7538C65.213 21.5778 65.969 20.9418 67.169 20.8458C67.265 20.8458 67.337 20.8458 67.385 20.8458C68.489 20.8218 69.341 21.2418 69.941 22.1058C70.397 22.7778 70.517 23.5458 70.301 24.4098C69.581 24.0498 68.993 24.2538 68.537 25.0218C68.345 25.3578 68.249 25.6818 68.249 25.9938C68.273 26.7858 68.813 27.3258 69.869 27.6138C70.301 27.7098 70.769 27.7698 71.273 27.7938C72.977 27.7938 74.081 27.1218 74.585 25.7778C74.729 25.4178 74.801 25.0458 74.801 24.6618C74.801 23.5338 74.009 22.5618 72.425 21.7458C72.065 21.5298 71.465 21.2418 70.625 20.8818C68.537 19.9698 67.133 19.1298 66.413 18.3618C65.645 17.5458 65.201 16.6098 65.081 15.5538C64.889 13.3458 65.825 11.7858 67.889 10.8738C69.065 10.3458 70.541 10.0818 72.317 10.0818ZM89.224 3.52979H89.8V11.1258H93.22V11.7018H89.8V19.8018V21.8538C89.8 24.2298 90.304 25.4298 91.312 25.4538C92.056 25.4538 92.8 24.8418 93.544 23.6178C93.568 23.5698 93.58 23.5338 93.58 23.5098L94.012 23.9058C93.22 25.2738 92.548 26.2218 91.996 26.7498C90.892 27.8298 89.608 28.3698 88.144 28.3698C85.672 28.3698 84.16 27.1458 83.608 24.6978C83.416 23.8818 83.32 22.9338 83.32 21.8538V19.6938V12.1698V11.7018H80.332V11.1258C82.996 10.4058 85.252 9.06179 87.1 7.09379C88.18 5.91779 88.888 4.72979 89.224 3.52979ZM103.262 10.0818C106.214 10.1058 108.422 11.0538 109.886 12.9258C110.75 14.0778 111.038 15.2658 110.75 16.4898C110.342 17.9058 109.274 18.7338 107.546 18.9738L100.742 19.7298C100.79 19.9218 100.85 20.1258 100.922 20.3418C101.618 22.4778 102.89 23.9058 104.738 24.6258C106.538 25.3458 108.242 25.1658 109.85 24.0858C110.594 23.5818 111.218 22.9218 111.722 22.1058L112.154 22.5378C111.074 25.2498 109.178 27.0378 106.466 27.9018C103.97 28.7178 101.498 28.5498 99.0503 27.3978C96.6263 26.2218 95.0423 24.3978 94.2983 21.9258C94.1303 21.3498 94.0223 20.7618 93.9743 20.1618C93.6383 16.5138 94.5863 13.8018 96.8183 12.0258C98.4263 10.7298 100.574 10.0818 103.262 10.0818ZM103.226 10.6578C101.762 10.6578 100.85 11.8338 100.49 14.1858C100.298 15.6018 100.334 17.2098 100.598 19.0098C100.622 19.0578 100.634 19.1058 100.634 19.1538L101.894 19.0098C104.438 18.7218 105.782 17.6778 105.926 15.8778C105.926 15.6618 105.926 15.4458 105.926 15.2298C105.614 12.2058 104.714 10.6818 103.226 10.6578ZM120.646 10.0818H121.222V12.0978C122.374 10.7778 123.91 10.1058 125.83 10.0818C130.318 10.1298 132.91 12.3018 133.606 16.5978L134.074 20.9178C134.482 24.1338 134.83 26.0298 135.118 26.6058C135.454 27.1818 136.018 27.4818 136.81 27.5058V28.0818H131.05H131.014H125.29V27.5058C126.754 27.5058 127.606 26.6658 127.846 24.9858C127.918 24.4338 127.918 23.8458 127.846 23.2218L127.126 15.9498C126.814 13.1658 125.878 11.6778 124.318 11.4858C124.078 11.4618 123.85 11.4618 123.634 11.4858C122.482 11.6538 121.762 12.4698 121.474 13.9338C121.306 14.7978 121.222 16.1418 121.222 17.9658V20.9898V23.2218C121.222 25.5498 121.726 26.9178 122.734 27.3258C123.046 27.4458 123.382 27.5058 123.742 27.5058V28.0818H117.982H117.946H112.222V27.5058C113.518 27.5058 114.298 26.7618 114.562 25.2738C114.682 24.6978 114.742 24.0138 114.742 23.2218V22.1058V20.9898V18.7218C114.742 16.0818 114.154 14.5218 112.978 14.0418C112.69 13.9458 112.39 13.8738 112.078 13.8258V13.2498C113.014 13.2498 113.938 13.1418 114.85 12.9258C115.786 12.7098 116.59 12.4458 117.262 12.1338C117.934 11.8218 118.534 11.5098 119.062 11.1978C119.59 10.8858 119.986 10.6218 120.25 10.4058L120.646 10.0818ZM149.877 0.181786H156.357H159.597V0.757785C158.037 0.757785 157.053 1.36979 156.645 2.59379C156.453 3.21779 156.357 4.03379 156.357 5.04179V13.2138H165.789V7.27379V5.04179C165.789 3.09779 165.441 1.84979 164.745 1.29779C164.265 0.937785 163.533 0.757785 162.549 0.757785V0.181786H165.789H172.269H175.509V0.757785C173.949 0.757785 172.965 1.36979 172.557 2.59379C172.365 3.21779 172.269 4.03379 172.269 5.04179V23.2218C172.269 25.3818 172.785 26.7018 173.817 27.1818C174.273 27.3978 174.837 27.5058 175.509 27.5058V28.0818H162.549V27.5058C164.085 27.5058 165.045 27.0138 165.429 26.0298C165.669 25.4058 165.789 24.4698 165.789 23.2218V21.0258V13.7898H156.357V21.0258V23.2218C156.357 25.3818 156.873 26.7018 157.905 27.1818C158.337 27.3978 158.901 27.5058 159.597 27.5058V28.0818H146.637V27.5058C148.173 27.5058 149.133 27.0138 149.517 26.0298C149.757 25.4058 149.877 24.4698 149.877 23.2218V21.0258V7.27379V5.04179C149.877 3.09779 149.529 1.84979 148.833 1.29779C148.353 0.937785 147.621 0.757785 146.637 0.757785V0.181786H149.877ZM184.574 10.0818C187.214 10.0818 189.446 11.0538 191.27 12.9978C192.878 14.7738 193.694 16.8498 193.718 19.2258C193.718 21.8658 192.746 24.0978 190.802 25.9218C189.026 27.5298 186.95 28.3458 184.574 28.3698C181.91 28.3698 179.678 27.3978 177.878 25.4538C176.246 23.6778 175.43 21.6018 175.43 19.2258C175.43 16.5618 176.402 14.3298 178.346 12.5298C180.122 10.8978 182.198 10.0818 184.574 10.0818ZM182.738 11.0898C182.618 11.0898 182.498 11.1138 182.378 11.1618C181.13 11.4978 180.662 13.1658 180.974 16.1658C181.118 17.3418 181.37 18.6138 181.73 19.9818C182.69 23.5578 183.854 25.8618 185.222 26.8938C185.75 27.2778 186.254 27.4098 186.734 27.2898C188.006 26.9538 188.486 25.2858 188.174 22.2858C188.03 21.0858 187.778 19.8018 187.418 18.4338C186.458 14.8818 185.294 12.5898 183.926 11.5578C183.518 11.2458 183.122 11.0898 182.738 11.0898ZM213.983 0.181786H214.559V6.69779V22.2858C214.559 25.3338 215.207 26.8098 216.503 26.7138C216.815 26.6898 217.103 26.5938 217.367 26.4258V27.0378C216.791 27.5658 215.759 27.9618 214.271 28.2258C211.655 28.6818 209.807 28.1418 208.727 26.6058C208.679 26.5098 208.631 26.4258 208.583 26.3538C207.191 27.6018 205.619 28.2738 203.867 28.3698C203.723 28.3938 203.579 28.4058 203.435 28.4058C203.291 28.4058 203.159 28.3938 203.039 28.3698C200.663 28.2498 198.683 27.1938 197.099 25.2018C195.875 23.6178 195.203 21.7938 195.083 19.7298C194.915 16.9938 195.695 14.6538 197.423 12.7098C198.911 11.1018 200.687 10.2258 202.751 10.0818C204.719 9.98579 206.495 10.5738 208.079 11.8458V10.6578V8.82179C208.079 6.18179 207.503 4.62179 206.351 4.14179C206.063 4.04579 205.751 3.97379 205.415 3.92579V3.34979C206.351 3.34979 207.287 3.24179 208.223 3.02579C209.159 2.80979 209.951 2.54579 210.599 2.23379C211.271 1.92179 211.871 1.60979 212.399 1.29779C212.927 0.985786 213.323 0.721786 213.587 0.505786L213.983 0.181786ZM202.571 10.7298C202.451 10.7298 202.343 10.7418 202.247 10.7658C200.975 11.1018 200.495 12.7698 200.807 15.7698C200.951 16.9698 201.203 18.2538 201.563 19.6218C202.523 23.1978 203.687 25.5018 205.055 26.5338C205.463 26.8218 205.859 26.9658 206.243 26.9658C206.363 26.9658 206.483 26.9538 206.603 26.9298C207.851 26.5938 208.319 24.9258 208.007 21.9258C207.863 20.7258 207.611 19.4418 207.251 18.0738C206.291 14.4978 205.127 12.1938 203.759 11.1618C203.351 10.8738 202.955 10.7298 202.571 10.7298ZM234.813 4.82579C236.181 4.84979 237.129 5.41379 237.657 6.51779C237.705 6.61379 237.741 6.70979 237.765 6.80579C238.173 7.95779 237.957 8.95379 237.117 9.79379C236.349 10.5858 235.509 10.8138 234.597 10.4778C234.309 10.3578 234.057 10.2018 233.841 10.0098C234.345 9.57779 234.381 9.02579 233.949 8.35379C233.493 7.65779 232.881 7.39379 232.113 7.56179C231.777 7.63379 231.477 7.78979 231.213 8.02979C230.685 8.48579 230.253 9.10979 229.917 9.90179C232.197 10.5258 233.877 11.7738 234.957 13.6458C235.557 14.7258 235.869 15.8538 235.893 17.0298C235.893 19.2378 234.969 21.0858 233.121 22.5738C231.513 23.8458 229.641 24.4818 227.505 24.4818C225.825 24.4818 224.289 24.0858 222.897 23.2938C221.937 23.6538 221.589 24.1578 221.853 24.8058C222.189 25.5978 223.245 26.1138 225.021 26.3538C225.597 26.4258 226.185 26.4618 226.785 26.4618C231.297 26.4618 234.285 26.9178 235.749 27.8298C236.901 28.5978 237.489 29.7018 237.513 31.1418C237.513 33.8298 236.049 35.8218 233.121 37.1178C231.297 37.9098 229.185 38.3058 226.785 38.3058C222.297 38.3058 219.549 37.3818 218.541 35.5338C218.277 35.0298 218.145 34.5018 218.145 33.9498C218.145 32.5338 219.045 31.5738 220.845 31.0698C220.869 31.0698 220.893 31.0698 220.917 31.0698C219.717 30.7338 218.937 29.9418 218.577 28.6938C218.145 27.2298 218.445 25.8858 219.477 24.6618C220.173 23.8458 221.097 23.2458 222.249 22.8618C220.353 21.5178 219.309 19.7658 219.117 17.6058C219.093 17.4138 219.081 17.2218 219.081 17.0298C219.081 14.8458 220.005 13.0098 221.853 11.5218C223.461 10.2498 225.345 9.61379 227.505 9.61379C228.129 9.61379 228.741 9.67379 229.341 9.79379C229.797 8.28179 230.409 7.14179 231.177 6.37379C232.257 5.31779 233.469 4.80179 234.813 4.82579ZM226.173 10.4778C226.077 10.5018 225.981 10.5258 225.885 10.5498C224.829 10.8378 224.469 12.3018 224.805 14.9418C224.925 15.8058 225.105 16.7058 225.345 17.6418C226.185 20.6658 227.181 22.5498 228.333 23.2938C228.717 23.5098 229.077 23.5818 229.413 23.5098C230.469 23.2218 230.829 21.7458 230.493 19.0818C230.373 18.2418 230.181 17.3538 229.917 16.4178C229.101 13.3698 228.117 11.4738 226.965 10.7298C226.701 10.5858 226.437 10.5018 226.173 10.4778ZM223.365 31.6818C222.429 32.4978 222.069 33.5178 222.285 34.7418C222.501 36.0618 223.341 36.9618 224.805 37.4418C225.429 37.6098 226.101 37.6938 226.821 37.6938C228.813 37.6938 230.457 37.0698 231.753 35.8218C232.761 34.8618 233.085 33.9858 232.725 33.1938C232.365 32.5218 231.549 32.1378 230.277 32.0418C229.845 32.0178 229.101 31.9818 228.045 31.9338C225.861 31.8138 224.301 31.7298 223.365 31.6818ZM247.192 10.0818C250.144 10.1058 252.352 11.0538 253.816 12.9258C254.68 14.0778 254.968 15.2658 254.68 16.4898C254.272 17.9058 253.204 18.7338 251.476 18.9738L244.672 19.7298C244.72 19.9218 244.78 20.1258 244.852 20.3418C245.548 22.4778 246.82 23.9058 248.668 24.6258C250.468 25.3458 252.172 25.1658 253.78 24.0858C254.524 23.5818 255.148 22.9218 255.652 22.1058L256.084 22.5378C255.004 25.2498 253.108 27.0378 250.396 27.9018C247.9 28.7178 245.428 28.5498 242.98 27.3978C240.556 26.2218 238.972 24.3978 238.228 21.9258C238.06 21.3498 237.952 20.7618 237.904 20.1618C237.568 16.5138 238.516 13.8018 240.748 12.0258C242.356 10.7298 244.504 10.0818 247.192 10.0818ZM247.156 10.6578C245.692 10.6578 244.78 11.8338 244.42 14.1858C244.228 15.6018 244.264 17.2098 244.528 19.0098C244.552 19.0578 244.564 19.1058 244.564 19.1538L245.824 19.0098C248.368 18.7218 249.712 17.6778 249.856 15.8778C249.856 15.6618 249.856 15.4458 249.856 15.2298C249.544 12.2058 248.644 10.6818 247.156 10.6578ZM265.325 10.0818C266.093 10.0818 267.257 10.2378 268.817 10.5498C269.393 10.6458 269.741 10.5378 269.861 10.2258C269.885 10.1778 269.909 10.1298 269.933 10.0818H270.509L271.085 15.9858L270.473 16.0218C269.849 13.3098 268.805 11.6418 267.341 11.0178C266.741 10.7778 266.069 10.6578 265.325 10.6578C264.149 10.6578 263.417 11.1618 263.129 12.1698C262.937 12.8178 263.009 13.4778 263.345 14.1498C263.705 14.8458 264.857 15.6258 266.801 16.4898C269.129 17.4978 270.629 18.2418 271.301 18.7218C272.693 19.7298 273.389 20.8818 273.389 22.1778C273.389 24.4098 272.297 26.0898 270.113 27.2178C268.601 27.9858 266.765 28.3698 264.605 28.3698C261.965 28.3698 260.009 27.6138 258.737 26.1018C257.897 25.0698 257.621 23.9538 257.909 22.7538C258.221 21.5778 258.977 20.9418 260.177 20.8458C260.273 20.8458 260.345 20.8458 260.393 20.8458C261.497 20.8218 262.349 21.2418 262.949 22.1058C263.405 22.7778 263.525 23.5458 263.309 24.4098C262.589 24.0498 262.001 24.2538 261.545 25.0218C261.353 25.3578 261.257 25.6818 261.257 25.9938C261.281 26.7858 261.821 27.3258 262.877 27.6138C263.309 27.7098 263.777 27.7698 264.281 27.7938C265.985 27.7938 267.089 27.1218 267.593 25.7778C267.737 25.4178 267.809 25.0458 267.809 24.6618C267.809 23.5338 267.017 22.5618 265.433 21.7458C265.073 21.5298 264.473 21.2418 263.633 20.8818C261.545 19.9698 260.141 19.1298 259.421 18.3618C258.653 17.5458 258.209 16.6098 258.089 15.5538C257.897 13.3458 258.833 11.7858 260.897 10.8738C262.073 10.3458 263.549 10.0818 265.325 10.0818Z" fill="#FEFEFE"/>
</svg>
