<svg width="212" height="26" viewBox="0 0 212 26" fill="none" xmlns="http://www.w3.org/2000/svg">
<path d="M9.18761 16.5897C9.18761 17.41 9.3061 17.9842 9.54308 18.3123C9.78005 18.6404 10.2221 18.8683 10.8692 18.9959V19.7752H0.834091V18.9959C1.69086 18.9412 2.26964 18.7498 2.57042 18.4217C2.8712 18.0936 3.02159 17.4829 3.02159 16.5897V3.64239C3.02159 2.74916 2.8712 2.13848 2.57042 1.81036C2.26964 1.48223 1.69086 1.29082 0.834091 1.23614V0.456841H10.8966V1.23614C10.2403 1.35463 9.78917 1.57793 9.54308 1.90606C9.3061 2.22507 9.18761 2.80385 9.18761 3.64239V8.29082C10.7371 6.88718 11.8855 5.7114 12.6329 4.76348C13.3803 3.80645 13.754 3.04082 13.754 2.46661C13.754 2.11114 13.6492 1.84226 13.4396 1.65997C13.2299 1.46856 12.8653 1.32728 12.3458 1.23614V0.456841H19.6329V1.23614C18.7488 1.29082 17.9376 1.52325 17.1993 1.9334C16.461 2.34356 15.6954 2.99069 14.9025 3.87481L13.3575 5.58379C14.7976 6.84161 16.0099 8.26804 16.9942 9.86309C17.9786 11.4581 18.8764 13.4816 19.6876 15.9334L19.7013 15.9744C20.3484 17.9887 21.1459 18.9959 22.0939 18.9959H22.2579V19.7752H11.8946L11.9083 18.9959C12.4643 18.9503 12.8426 18.8273 13.0431 18.6268C13.2527 18.4171 13.3575 18.0617 13.3575 17.5604C13.3575 16.3299 12.9838 15.0037 12.2364 13.5818C11.4982 12.16 10.4819 10.8384 9.18761 9.617V16.5897ZM28.4923 8.04473C28.948 7.27911 29.4402 6.70489 29.9689 6.32207C30.5066 5.93926 31.0808 5.74786 31.6915 5.74786C32.366 5.74786 32.9083 5.94838 33.3185 6.34942C33.7286 6.75046 33.9337 7.27911 33.9337 7.93536C33.9337 8.50957 33.7605 8.96986 33.4142 9.31622C33.0769 9.66257 32.6258 9.83575 32.0607 9.83575C31.5502 9.83575 31.058 9.63067 30.5841 9.22051C30.1192 8.81036 29.823 8.60528 29.6954 8.60528C29.3946 8.60528 29.1804 8.8058 29.0528 9.20684C28.9252 9.60788 28.8614 10.3234 28.8614 11.3533V16.9998C28.8614 17.7107 29.0027 18.2212 29.2853 18.5311C29.5769 18.841 30.0509 18.9959 30.7071 18.9959H30.7892V19.7752H21.8341V18.9959H21.9161C22.5177 18.9959 22.9461 18.8455 23.2013 18.5447C23.4656 18.2348 23.5978 17.7199 23.5978 16.9998V11.8455C23.5978 11.408 23.5431 11.0844 23.4337 10.8748C23.3243 10.6652 23.1192 10.4601 22.8185 10.2596L21.1095 9.05645C22.0027 8.74655 23.0327 8.32273 24.1993 7.78497C25.366 7.23809 26.797 6.5226 28.4923 5.63848V8.04473ZM35.7657 11.2029C35.7657 10.7837 35.7202 10.4829 35.629 10.3006C35.5379 10.1092 35.3237 9.88132 34.9864 9.617L33.4962 8.41387C34.5808 8.06752 35.7521 7.66192 37.0099 7.19707C38.2677 6.73223 39.6075 6.2127 41.0294 5.63848V16.9998C41.0294 17.7016 41.1525 18.2075 41.3985 18.5174C41.6538 18.8182 42.073 18.9777 42.6564 18.9959V19.7752H34.0021V18.9959H34.0841C34.6857 18.9959 35.114 18.8455 35.3692 18.5447C35.6336 18.2348 35.7657 17.7199 35.7657 16.9998V11.2029ZM35.3966 2.94512C35.3966 2.1795 35.6609 1.53236 36.1896 1.00372C36.7273 0.465955 37.379 0.197075 38.1446 0.197075C38.9194 0.197075 39.5711 0.465955 40.0997 1.00372C40.6284 1.53236 40.8927 2.1795 40.8927 2.94512C40.8927 3.71075 40.6238 4.36244 40.086 4.9002C39.5574 5.42885 38.9103 5.69317 38.1446 5.69317C37.379 5.69317 36.7273 5.42885 36.1896 4.9002C35.6609 4.37155 35.3966 3.71986 35.3966 2.94512ZM44.2696 19.2147V14.7303H44.9806C45.3907 16.216 46.0196 17.3644 46.8673 18.1756C47.715 18.9777 48.7084 19.3787 49.8478 19.3787C50.4584 19.3787 50.9324 19.2374 51.2696 18.9549C51.6069 18.6723 51.7755 18.2759 51.7755 17.7654C51.7755 16.7628 50.7911 15.8605 48.8224 15.0584L48.6446 14.99C46.9129 14.2882 45.7644 13.6274 45.1993 13.0076C44.6342 12.3787 44.3517 11.5721 44.3517 10.5877C44.3517 9.12025 44.9031 7.95359 46.006 7.0877C47.1088 6.2127 48.6036 5.7752 50.4903 5.7752C51.2013 5.7752 51.9304 5.839 52.6778 5.96661C53.4252 6.0851 54.1909 6.26283 54.9747 6.49981V10.2322H54.2911C53.6713 8.97442 53.0515 8.08119 52.4317 7.55254C51.812 7.0239 51.101 6.75957 50.2989 6.75957C49.6974 6.75957 49.2097 6.90997 48.836 7.21075C48.4623 7.50241 48.2755 7.88067 48.2755 8.34551C48.2755 9.12025 49.2827 9.91322 51.297 10.7244C51.461 10.7882 51.5841 10.8384 51.6661 10.8748C53.4982 11.6222 54.683 12.3012 55.2208 12.9119C55.7586 13.5226 56.0275 14.3338 56.0275 15.3455C56.0275 16.8312 55.4532 18.0389 54.3048 18.9686C53.1655 19.8982 51.6798 20.3631 49.8478 20.3631C48.9545 20.3631 48.0431 20.2674 47.1134 20.076C46.1837 19.8846 45.2358 19.5975 44.2696 19.2147ZM59.1857 7.40215H57.2853L64.34 0.593559V6.36309H65.0782C65.6798 6.36309 66.1948 6.33119 66.6232 6.26739C67.0515 6.20359 67.4207 6.10332 67.7306 5.96661L67.3067 7.40215H64.34V14.6209C64.34 15.8149 64.4949 16.699 64.8048 17.2732C65.1147 17.8384 65.5978 18.1209 66.254 18.1209C66.3907 18.1209 66.5457 18.0981 66.7189 18.0525C66.892 18.007 67.088 17.9386 67.3067 17.8475V18.6814C66.6961 19.2283 66.0216 19.643 65.2833 19.9256C64.5541 20.2173 63.7931 20.3631 63.0001 20.3631C61.715 20.3631 60.7351 19.9939 60.0607 19.2557C59.3862 18.5083 59.0489 17.4236 59.0489 16.0018V15.824L59.1857 7.40215ZM81.2521 17.5057C80.4773 18.4354 79.5886 19.1463 78.586 19.6385C77.5834 20.1216 76.5125 20.3631 75.3732 20.3631C74.3341 20.3631 73.3588 20.1535 72.4474 19.7342C71.545 19.3149 70.7657 18.7134 70.1095 17.9295C69.5717 17.2915 69.1661 16.5851 68.8927 15.8104C68.6192 15.0265 68.4825 14.1834 68.4825 13.2811C68.4825 12.3514 68.6147 11.4855 68.879 10.6834C69.1433 9.88132 69.5444 9.12481 70.0821 8.41387C70.6655 7.6209 71.4493 6.97832 72.4337 6.48614C73.4272 5.99395 74.4344 5.74786 75.4552 5.74786C77.2325 5.74786 78.6498 6.29017 79.7071 7.37481C80.7735 8.45944 81.3067 9.91322 81.3067 11.7361H73.3907C73.4454 13.3585 73.9741 14.7075 74.9767 15.783C75.9793 16.8585 77.187 17.3963 78.5997 17.3963C79.1375 17.3963 79.6251 17.3006 80.0626 17.1092C80.5001 16.9087 80.8966 16.6124 81.2521 16.2205V17.5057ZM73.3634 10.7654H74.6212C75.8608 10.7654 76.6219 10.6606 76.9044 10.451C77.187 10.2322 77.3282 9.82207 77.3282 9.22051C77.3282 8.40931 77.1824 7.80319 76.8907 7.40215C76.5991 6.992 76.157 6.78692 75.5646 6.78692C74.808 6.78692 74.2521 7.10593 73.8966 7.74395C73.5411 8.37286 73.3634 9.38002 73.3634 10.7654ZM89.8927 16.9998C89.8927 17.7016 90.0157 18.2075 90.2618 18.5174C90.517 18.8182 90.9363 18.9777 91.5196 18.9959V19.7752H82.8653V18.9959H82.9474C83.5489 18.9959 83.9773 18.8455 84.2325 18.5447C84.4969 18.2348 84.629 17.7199 84.629 16.9998V11.8455C84.629 11.408 84.5743 11.0844 84.465 10.8748C84.3556 10.6652 84.1505 10.4601 83.8497 10.2596L82.1407 9.05645C83.2709 8.64629 84.4376 8.15866 85.6407 7.59356C86.853 7.02846 88.1108 6.37676 89.4142 5.63848V7.9627C89.961 7.23353 90.5991 6.68666 91.3282 6.32207C92.0574 5.95749 92.8777 5.7752 93.7892 5.7752C95.284 5.7752 96.3959 6.15801 97.1251 6.92364C97.8634 7.68015 98.2325 8.8377 98.2325 10.3963V16.9998C98.2325 17.7199 98.3601 18.2348 98.6153 18.5447C98.8797 18.8455 99.3126 18.9959 99.9142 18.9959H99.9962V19.7752H92.9689V10.533C92.9689 9.54864 92.8458 8.86504 92.5997 8.48223C92.3627 8.09942 91.9571 7.90801 91.3829 7.90801C90.8452 7.90801 90.4623 8.10853 90.2345 8.50957C90.0066 8.9015 89.8927 9.57598 89.8927 10.533V16.9998ZM119.383 16.5897C119.383 17.41 119.501 17.9842 119.738 18.3123C119.984 18.6404 120.436 18.8683 121.092 18.9959V19.7752H111.029V18.9959C111.886 18.9412 112.465 18.7498 112.766 18.4217C113.067 18.0936 113.217 17.4829 113.217 16.5897V3.64239C113.217 2.74916 113.067 2.13848 112.766 1.81036C112.465 1.48223 111.886 1.29082 111.029 1.23614V0.456841H121.092V1.23614C120.436 1.35463 119.984 1.57793 119.738 1.90606C119.501 2.22507 119.383 2.80385 119.383 3.64239V8.31817H124.086V3.64239C124.086 2.83119 123.958 2.25697 123.703 1.91973C123.457 1.58249 123.006 1.35463 122.35 1.23614V0.456841H132.371V1.23614C131.524 1.29082 130.945 1.48223 130.635 1.81036C130.334 2.13848 130.184 2.74916 130.184 3.64239V16.5897C130.184 17.4829 130.334 18.0936 130.635 18.4217C130.945 18.7498 131.524 18.9412 132.371 18.9959V19.7752H122.35V18.9959C123.006 18.8774 123.457 18.6541 123.703 18.326C123.958 17.9887 124.086 17.41 124.086 16.5897V9.41192H119.383V16.5897ZM141.955 19.324C142.794 19.324 143.373 18.9275 143.692 18.1346C144.011 17.3416 144.17 15.6463 144.17 13.0486C144.17 10.4692 144.011 8.78757 143.692 8.00372C143.373 7.21075 142.794 6.81426 141.955 6.81426C141.126 6.81426 140.552 7.19252 140.233 7.94903C139.923 8.70554 139.768 10.4054 139.768 13.0486C139.768 15.7101 139.923 17.4236 140.233 18.1893C140.552 18.9458 141.126 19.324 141.955 19.324ZM141.955 20.3631C139.558 20.3631 137.63 19.6932 136.172 18.3533C134.723 17.0135 133.998 15.2453 133.998 13.0486C133.998 10.8611 134.723 9.10202 136.172 7.77129C137.63 6.44056 139.558 5.7752 141.955 5.7752C144.352 5.7752 146.28 6.44512 147.738 7.78497C149.206 9.11569 149.94 10.8703 149.94 13.0486C149.94 15.2361 149.206 17.0044 147.738 18.3533C146.271 19.6932 144.343 20.3631 141.955 20.3631ZM161.274 5.82989C161.274 5.38327 161.228 5.06426 161.137 4.87286C161.046 4.68145 160.831 4.44903 160.494 4.17559L159.004 2.97247C159.751 2.75372 160.636 2.45749 161.656 2.08379C162.677 1.7101 164.277 1.08119 166.455 0.197075V16.9998C166.455 17.7199 166.583 18.2348 166.838 18.5447C167.102 18.8455 167.535 18.9959 168.137 18.9959H168.219V19.7752H161.192L161.137 18.2303C160.663 18.9503 160.089 19.4835 159.414 19.8299C158.74 20.1854 157.96 20.3631 157.076 20.3631C155.417 20.3631 154.096 19.757 153.111 18.5447C152.136 17.3325 151.649 15.6873 151.649 13.6092C151.649 11.2303 152.182 9.32989 153.248 7.90801C154.324 6.48614 155.75 5.7752 157.527 5.7752C158.311 5.7752 159.022 5.92103 159.66 6.2127C160.307 6.50437 160.845 6.92819 161.274 7.48418V5.82989ZM159.318 18.1209C160.048 18.1209 160.549 17.7973 160.822 17.1502C161.105 16.4939 161.246 15.0903 161.246 12.9393C161.246 10.7609 161.105 9.35267 160.822 8.71465C160.549 8.07663 160.048 7.75762 159.318 7.75762C158.589 7.75762 158.088 8.07663 157.815 8.71465C157.541 9.35267 157.404 10.7609 157.404 12.9393C157.404 15.0812 157.541 16.4803 157.815 17.1365C158.097 17.7928 158.598 18.1209 159.318 18.1209ZM176.422 14.3475C177.124 14.3475 177.63 14.0558 177.94 13.4725C178.249 12.8891 178.404 11.9275 178.404 10.5877C178.404 9.2114 178.249 8.22247 177.94 7.6209C177.63 7.01023 177.124 6.70489 176.422 6.70489C175.711 6.70489 175.201 6.99655 174.891 7.57989C174.581 8.16322 174.426 9.15671 174.426 10.5604C174.426 11.9093 174.581 12.88 174.891 13.4725C175.21 14.0558 175.72 14.3475 176.422 14.3475ZM171.801 21.5662C171.764 21.6574 171.737 21.7439 171.719 21.826C171.701 21.908 171.692 21.99 171.692 22.0721C171.692 22.7466 172.106 23.3299 172.936 23.8221C173.765 24.3143 174.804 24.5604 176.053 24.5604C177.265 24.5604 178.236 24.3462 178.965 23.9178C179.694 23.4985 180.059 22.9471 180.059 22.2635C180.059 21.8442 179.904 21.507 179.594 21.2518C179.293 20.9966 178.887 20.8689 178.377 20.8689C178.058 20.8689 177.329 21.0285 176.19 21.3475C175.059 21.6665 174.089 21.826 173.277 21.826C173.05 21.826 172.808 21.8032 172.553 21.7576C172.298 21.712 172.047 21.6482 171.801 21.5662ZM171.883 14.2244C171.245 13.8143 170.757 13.3084 170.42 12.7068C170.092 12.0962 169.928 11.4262 169.928 10.6971C169.928 9.22963 170.552 8.03562 171.801 7.11504C173.05 6.18536 174.681 5.72051 176.695 5.72051C176.942 5.72051 177.192 5.73418 177.447 5.76153C177.712 5.78887 177.985 5.82989 178.268 5.88457C178.568 5.10072 179.024 4.48549 179.635 4.03887C180.246 3.59226 180.938 3.36895 181.713 3.36895C182.278 3.36895 182.743 3.53301 183.108 3.86114C183.481 4.18926 183.668 4.60398 183.668 5.10528C183.668 5.53366 183.527 5.89369 183.244 6.18536C182.962 6.46791 182.611 6.60918 182.192 6.60918C181.827 6.60918 181.38 6.45879 180.852 6.15801C180.323 5.84812 179.954 5.69317 179.744 5.69317C179.608 5.69317 179.489 5.72507 179.389 5.78887C179.289 5.84356 179.202 5.93015 179.129 6.04864C180.359 6.46791 181.298 7.06947 181.945 7.85332C182.593 8.62806 182.916 9.53952 182.916 10.5877C182.916 12.0187 182.296 13.1808 181.057 14.074C179.817 14.9673 178.186 15.4139 176.162 15.4139C175.615 15.4139 175.068 15.3637 174.522 15.2635C173.984 15.1632 173.442 15.0174 172.895 14.826C172.457 14.8989 172.111 15.0493 171.856 15.2772C171.609 15.505 171.486 15.7739 171.486 16.0838C171.486 16.4484 171.623 16.7446 171.897 16.9725C172.179 17.2003 172.548 17.3143 173.004 17.3143C173.432 17.3143 174.193 17.1001 175.287 16.6717L175.438 16.617C176.331 16.2706 177.055 16.0337 177.611 15.9061C178.167 15.7785 178.705 15.7147 179.225 15.7147C180.592 15.7147 181.699 16.1248 182.547 16.9451C183.404 17.7563 183.832 18.8136 183.832 20.117C183.832 21.7941 183.121 23.1385 181.699 24.1502C180.277 25.171 178.368 25.6814 175.971 25.6814C174.011 25.6814 172.475 25.4126 171.363 24.8748C170.251 24.337 169.695 23.5988 169.695 22.66C169.695 22.3045 169.768 21.9855 169.914 21.7029C170.06 21.4204 170.288 21.1606 170.598 20.9236C170.106 20.5864 169.727 20.1626 169.463 19.6522C169.208 19.1417 169.08 18.5675 169.08 17.9295C169.08 17.0454 169.317 16.2934 169.791 15.6736C170.265 15.0447 170.962 14.5617 171.883 14.2244ZM197.682 17.5057C196.907 18.4354 196.018 19.1463 195.016 19.6385C194.013 20.1216 192.942 20.3631 191.803 20.3631C190.764 20.3631 189.789 20.1535 188.877 19.7342C187.975 19.3149 187.195 18.7134 186.539 17.9295C186.001 17.2915 185.596 16.5851 185.322 15.8104C185.049 15.0265 184.912 14.1834 184.912 13.2811C184.912 12.3514 185.044 11.4855 185.309 10.6834C185.573 9.88132 185.974 9.12481 186.512 8.41387C187.095 7.6209 187.879 6.97832 188.863 6.48614C189.857 5.99395 190.864 5.74786 191.885 5.74786C193.662 5.74786 195.08 6.29017 196.137 7.37481C197.203 8.45944 197.736 9.91322 197.736 11.7361H189.82C189.875 13.3585 190.404 14.7075 191.406 15.783C192.409 16.8585 193.617 17.3963 195.029 17.3963C195.567 17.3963 196.055 17.3006 196.492 17.1092C196.93 16.9087 197.326 16.6124 197.682 16.2205V17.5057ZM189.793 10.7654H191.051C192.29 10.7654 193.052 10.6606 193.334 10.451C193.617 10.2322 193.758 9.82207 193.758 9.22051C193.758 8.40931 193.612 7.80319 193.32 7.40215C193.029 6.992 192.587 6.78692 191.994 6.78692C191.238 6.78692 190.682 7.10593 190.326 7.74395C189.971 8.37286 189.793 9.38002 189.793 10.7654ZM200.047 19.2147V14.7303H200.758C201.168 16.216 201.797 17.3644 202.645 18.1756C203.492 18.9777 204.486 19.3787 205.625 19.3787C206.236 19.3787 206.71 19.2374 207.047 18.9549C207.384 18.6723 207.553 18.2759 207.553 17.7654C207.553 16.7628 206.568 15.8605 204.6 15.0584L204.422 14.99C202.69 14.2882 201.542 13.6274 200.977 13.0076C200.412 12.3787 200.129 11.5721 200.129 10.5877C200.129 9.12025 200.68 7.95359 201.783 7.0877C202.886 6.2127 204.381 5.7752 206.268 5.7752C206.979 5.7752 207.708 5.839 208.455 5.96661C209.203 6.0851 209.968 6.26283 210.752 6.49981V10.2322H210.068C209.449 8.97442 208.829 8.08119 208.209 7.55254C207.589 7.0239 206.878 6.75957 206.076 6.75957C205.475 6.75957 204.987 6.90997 204.613 7.21075C204.24 7.50241 204.053 7.88067 204.053 8.34551C204.053 9.12025 205.06 9.91322 207.074 10.7244C207.238 10.7882 207.361 10.8384 207.443 10.8748C209.275 11.6222 210.46 12.3012 210.998 12.9119C211.536 13.5226 211.805 14.3338 211.805 15.3455C211.805 16.8312 211.231 18.0389 210.082 18.9686C208.943 19.8982 207.457 20.3631 205.625 20.3631C204.732 20.3631 203.82 20.2674 202.891 20.076C201.961 19.8846 201.013 19.5975 200.047 19.2147Z" fill="#0F4C81"/>
</svg>
