<svg className="mx-auto rings" width="30" height="21" viewBox="0 0 30 21" fill="none" xmlns="http://www.w3.org/2000/svg">
<g clip-path="url(#clip0)">
<path d="M16.1083 3.1191C17.7869 4.57992 18.9006 6.58567 19.2547 8.78611C19.6089 10.9865 19.1811 13.2418 18.0461 15.1582C16.911 17.0745 15.1409 18.5301 13.0447 19.2707C10.9485 20.0114 8.65948 19.9901 6.57737 19.2105C4.49527 18.4309 2.75237 16.9426 1.65302 15.0054C0.55368 13.0683 0.16775 10.8054 0.562626 8.61195C0.957502 6.41849 2.10809 4.43383 3.81348 3.00454C5.51886 1.57525 7.67067 0.792153 9.89315 0.791992C11.5867 0.796448 13.2488 1.25043 14.7107 2.1078" stroke="#0F4C81" stroke-miterlimit="10"/>
<path d="M14.6876 3.93742C16.3118 5.17144 17.3992 6.98582 17.7238 9.00328C18.0483 11.0207 17.585 13.086 16.4302 14.7697C15.2753 16.4533 13.5179 17.6258 11.5232 18.0433C9.52853 18.4608 7.45016 18.0911 5.72028 17.0112C3.99039 15.9313 2.7421 14.2242 2.23498 12.245C1.72786 10.2657 2.00094 8.16662 2.99742 6.38411C3.99391 4.60161 5.63712 3.27289 7.58537 2.67425C9.53362 2.07561 11.637 2.25312 13.4581 3.16987" stroke="#0F4C81" stroke-miterlimit="10"/>
<path d="M13.8567 17.2847C11.9921 15.7023 10.8105 13.4577 10.5595 11.021C10.3085 8.5843 11.0075 6.14475 12.5101 4.21346C14.0126 2.28217 16.2022 1.00902 18.62 0.660787C21.0377 0.312549 23.496 0.916241 25.4798 2.34537C27.4637 3.77451 28.819 5.91817 29.2619 8.32721C29.7048 10.7363 29.2008 13.2237 27.8556 15.2684C26.5105 17.3131 24.4285 18.7563 22.0458 19.2957C19.6632 19.8351 17.1649 19.4288 15.0744 18.1619" stroke="#0F4C81" stroke-miterlimit="10"/>
<path d="M15.1474 16.358C13.5285 15.1149 12.4498 13.2935 12.1358 11.273C11.8219 9.25244 12.2968 7.1883 13.4619 5.51006C14.627 3.83181 16.3924 2.66873 18.3908 2.2628C20.3893 1.85688 22.4668 2.23938 24.1912 3.33073C25.9156 4.42207 27.154 6.1382 27.6487 8.12203C28.1434 10.1059 27.8564 12.2046 26.8473 13.9816C25.8382 15.7585 24.1848 17.0769 22.2311 17.6622C20.2774 18.2476 18.1739 18.0549 16.3582 17.1243" stroke="#0F4C81" stroke-miterlimit="10"/>
</g>
<defs>
<clipPath id="clip0">
<rect width="30" height="20.4878" fill="white"/>
</clipPath>
</defs>
</svg>
